<svg xmlns="http://www.w3.org/2000/svg" width="1600" height="1080" viewBox="0 0 1600 1080" role="img" aria-labelledby="title desc">
<title id="title">客服个人详情页线框图</title><desc id="desc">展示人员身份、当日 KPI、历史趋势、排名变化、荣誉、连续记录和参与日历。</desc>
  <defs><linearGradient id="bg" x1="0" y1="0" x2="1" y2="1"><stop stop-color="#f8fafc"/><stop offset="1" stop-color="#edf4fb"/></linearGradient><linearGradient id="hero" x1="0" y1="0" x2="1" y2="1"><stop stop-color="#1d4ed8"/><stop offset="1" stop-color="#0891b2"/></linearGradient><filter id="shadow"><feDropShadow dx="0" dy="9" stdDeviation="11" flood-color="#1e3a5f" flood-opacity=".12"/></filter><style>text{font-family:"Microsoft YaHei","PingFang SC",Arial,sans-serif;fill:#18324f}.title{font-size:29px;font-weight:700}.small{font-size:13px;fill:#667c92}.label{font-size:16px;font-weight:700}.value{font-size:28px;font-weight:700}.panel{fill:#fff;stroke:#d4dfeb;stroke-width:1.5}.chip{fill:#edf3f8}.line{fill:none;stroke:#2563eb;stroke-width:4}.line2{fill:none;stroke:#10b981;stroke-width:3}.grid{stroke:#e3eaf1}.good{fill:#dcfce7}.warn{fill:#ffedd5}.empty{fill:#eef2f7}.participated{fill:#3b82f6}</style></defs>
  <rect width="1600" height="1080" fill="url(#bg)"/>
  <text x="52" y="60" class="small">← 返回 Dashboard</text><rect x="1328" y="36" width="212" height="44" rx="12" class="chip"/><text x="1434" y="64" text-anchor="middle" class="label">2026-07-22 · 官方快照</text>

  <rect x="52" y="108" width="1490" height="176" rx="26" fill="url(#hero)" filter="url(#shadow)"/>
<circle cx="128" cy="196" r="50" fill="#ffffff33"/><text x="128" y="207" text-anchor="middle" class="title" style="fill:#fff">楠</text>
<text x="208" y="171" class="title" style="fill:#fff">售后楠楠</text><text x="208" y="205" class="small" style="fill:#dff6ff">售后团队 · 商丘客服组 · 在职</text><text x="208" y="237" class="small" style="fill:#dff6ff">来源账号：售后楠楠　|　历史别名 1 个</text>
<text x="1040" y="164" class="small" style="fill:#dff6ff">今日排名</text><text x="1040" y="218" class="value" style="fill:#fff" font-size="46">第 1 / 18</text><text x="1300" y="164" class="small" style="fill:#dff6ff">综合得分</text><text x="1300" y="218" class="value" style="fill:#fff" font-size="46">96.2</text>

  <g transform="translate(52 310)"><g><rect width="350" height="128" rx="20" class="panel"/><text x="24" y="38" class="small">满意率</text><text x="24" y="83" class="value">100%</text><text x="212" y="83" class="small">目标 90% · 已达标</text><text x="24" y="109" class="small">14 好评 / 0 差评</text></g><g transform="translate(370)"><rect width="350" height="128" rx="20" class="panel"/><text x="24" y="38" class="small">平均响应时长</text><text x="24" y="83" class="value">13 秒</text><text x="212" y="83" class="small">目标 20 秒 · 已达标</text><text x="24" y="109" class="small">简单平均口径 · 未按会话量加权</text></g><g transform="translate(740)"><rect width="350" height="128" rx="20" class="panel"/><text x="24" y="38" class="small">转化率</text><text x="24" y="83" class="value">30.8%</text><text x="212" y="83" class="small">目标待确认</text><text x="24" y="109" class="small">12 下单 / 39 询单</text></g><g transform="translate(1110)"><rect width="380" height="128" rx="20" class="panel"/><text x="24" y="38" class="small">连续记录</text><text x="24" y="79" class="label">连续 3 个参与日第一</text><text x="24" y="106" class="small">未参与日默认暂停，不中断</text></g></g>

  <rect x="52" y="466" width="1010" height="335" rx="24" class="panel" filter="url(#shadow)"/><text x="82" y="508" class="label">个人 KPI 趋势</text><rect x="840" y="485" width="190" height="40" rx="12" class="chip"/><text x="935" y="511" text-anchor="middle" class="small">7天　30天　90天</text>
  <line x1="100" y1="748" x2="1015" y2="748" class="grid"/><line x1="100" y1="680" x2="1015" y2="680" class="grid"/><line x1="100" y1="612" x2="1015" y2="612" class="grid"/><line x1="100" y1="544" x2="1015" y2="544" class="grid"/>
  <path d="M110 700 C190 670 245 600 325 620 S460 680 535 600 S680 560 760 590 S900 625 1005 540" class="line"/><path d="M110 735 C210 690 285 720 370 665 S515 690 615 640 S780 620 1005 650" class="line2"/>
  <text x="110" y="780" class="small">07/15</text><text x="960" y="780" class="small">07/22</text><text x="735" y="508" class="small">满意率　均响　转化率</text>

  <rect x="1090" y="466" width="452" height="335" rx="24" class="panel" filter="url(#shadow)"/><text x="1120" y="508" class="label">排名变化</text><text x="1120" y="544" class="small">最近参与日：5 → 3 → 4 → 1 → 1 → 1</text>
  <polyline points="1135,690 1200,650 1265,670 1330,570 1395,570 1500,570" fill="none" stroke="#8b5cf6" stroke-width="4"/><g fill="#8b5cf6"><circle cx="1135" cy="690" r="7"/><circle cx="1200" cy="650" r="7"/><circle cx="1265" cy="670" r="7"/><circle cx="1330" cy="570" r="7"/><circle cx="1395" cy="570" r="7"/><circle cx="1500" cy="570" r="7"/></g><text x="1120" y="752" class="small">只连接实际参与日期；休息/未纳入日期不记末位</text>

  <rect x="52" y="830" width="690" height="210" rx="24" class="panel"/><text x="82" y="872" class="label">荣誉记录</text><rect x="82" y="895" width="180" height="54" rx="16" class="good"/><text x="172" y="927" text-anchor="middle" class="label">🏆 今日综合冠军</text><rect x="280" y="895" width="180" height="54" rx="16" class="good"/><text x="370" y="927" text-anchor="middle" class="label">✓ 全指标达标</text><rect x="478" y="895" width="200" height="54" rx="16" class="warn"/><text x="578" y="927" text-anchor="middle" class="label">⚡ 极速响应之星</text><text x="82" y="990" class="small">荣誉绑定当日批次与规则版本；修正版不会删除旧记录。</text>
  <rect x="770" y="830" width="772" height="210" rx="24" class="panel"/><text x="800" y="872" class="label">参与日历 · 2026 年 7 月</text><g transform="translate(800 900)"><g fill="#eef2f7"><rect x="0" y="0" width="28" height="28" rx="6"/><rect x="38" y="0" width="28" height="28" rx="6"/><rect x="76" y="0" width="28" height="28" rx="6"/><rect x="114" y="0" width="28" height="28" rx="6"/><rect x="152" y="0" width="28" height="28" rx="6"/><rect x="190" y="0" width="28" height="28" rx="6"/></g><g class="participated"><rect x="228" y="0" width="28" height="28" rx="6"/><rect x="266" y="0" width="28" height="28" rx="6"/><rect x="304" y="0" width="28" height="28" rx="6"/><rect x="342" y="0" width="28" height="28" rx="6"/><rect x="380" y="0" width="28" height="28" rx="6"/><rect x="418" y="0" width="28" height="28" rx="6"/><rect x="456" y="0" width="28" height="28" rx="6"/></g><g fill="#eef2f7"><rect x="494" y="0" width="28" height="28" rx="6"/><rect x="532" y="0" width="28" height="28" rx="6"/></g></g><text x="800" y="975" class="small">蓝色：参与统计　灰色：休息/缺失/未纳入（连续记录暂停）</text><text x="800" y="1007" class="small">个人历史默认读取官方快照；动态筛选需明确标记“非官方重算”。</text>
</svg>
